<svg version="1.1" viewBox="0 0 20 20" xmlns="http://www.w3.org/2000/svg">
	<path d="m5.721 4.98c-0.9112-0.06007-1.915 0.5631-1.948 1.543-0.03201 0.7906 0.1509 1.585 0.07146 2.371-0.2139 0.6389-0.9667 0.4674-1.491 0.4923-0.1863 0.06178-0.6316-0.1355-0.6228 0.1213v1.105c0.5894 0.02964 1.198-0.07444 1.77 0.08792 0.5755 0.3033 0.3219 1.005 0.326 1.523-0.03608 0.7514-0.2335 1.627 0.3706 2.219 0.5785 0.6195 1.468 0.59 2.248 0.5766v-1.238c-0.4577-0.01271-1.087 0.1048-1.296-0.4314-0.08035-0.5964 0.04623-1.205 0.05832-1.807 0.1383-0.6848-0.3339-1.405-1.041-1.495-0.8276-0.1085 0.8509-0.132 0.8665-0.6497 0.3377-0.5762 0.1084-1.258 0.1132-1.887-0.024-0.4498-0.1684-1.105 0.4145-1.259 0.2643-0.1154 0.6779 0.02728 0.8845-0.0859v-1.186zm7.834 0v1.227c0.4628 0.00734 1.083-0.09327 1.304 0.4378 0.08504 0.5976-0.04477 1.209-0.05611 1.812-0.1443 0.6842 0.3158 1.415 1.031 1.495 0.8296 0.1098-0.859 0.1284-0.8712 0.6492-0.3179 0.5674-0.09689 1.232-0.1013 1.847 0.02309 0.4606 0.1788 1.129-0.4217 1.287-0.2643 0.1154-0.6779-0.02728-0.8845 0.08591v1.198c0.8032 0.01023 1.746 0.05871 2.306-0.6313 0.5887-0.7079 0.3029-1.654 0.2914-2.486-0.03956-0.4519-0.1207-1.084 0.4416-1.243 0.5502-0.1049 1.118-0.03483 1.676-0.05524v-1.227c-0.5912-0.0282-1.2 0.07105-1.775-0.08437-0.5687-0.2804-0.3191-0.9744-0.3242-1.476 0.03649-0.7649 0.2378-1.655-0.3751-2.259-0.5818-0.6309-1.457-0.5854-2.24-0.5766zm-4.168 2.348c-0.02768 0.7977 0.02906 1.601 0.3171 2.354 0.0487 0.4781-0.8264-0.5763-1.176-0.5967-0.3286-0.1541-0.6791-0.2548-1.018-0.3824l-0.4062 1.131c0.7745 0.3122 1.591 0.5162 2.432 0.5117-0.3433 0.4061-0.9794 0.7614-1.29 1.282-0.1054 0.2035-0.3596 0.4342-0.372 0.6206l0.9376 0.6584c0.5257-0.6713 0.9348-1.429 1.141-2.262 0.2993 0.4452 0.3863 1.193 0.7809 1.666 0.1525 0.1727 0.2783 0.4936 0.4476 0.5727l0.9492-0.6586c-0.4476-0.7152-1.02-1.345-1.719-1.824 0.516-0.1561 1.217-0.0783 1.767-0.324l0.6865-0.2424-0.416-1.131c-0.7731 0.2455-1.517 0.5874-2.131 1.131-0.2014-0.143 0.3165-1.077 0.2545-1.517 0.02067-0.3292 0.0068-0.6594 0.01082-0.9891h-1.195z"/>
</svg>
